# xmcd
#
# Track frame offsets:
#	150
#	18330
#	40365
#	59015
#	78135
#	95917
#	117247
#	133477
#	145205
#	169725
#	188232
#	206202
#	223747
#	238390
#
# Disc length: 3471 seconds
#
# Revision: 0
# Processed by: cddbd v1.5.2PL0 Copyright (c) Steve Scherf et al.
# Submitted via: EZCDAudioConverter 1.3.4.1
#
DISCID=df0d8d0e
DTITLE=Various Artist - Soul Chasers
DYEAR=1993
DGENRE=Soul
TTITLE0=Got To Get Away - Sheree Brown
TTITLE1=Be For Real - Cat Miller
TTITLE2=Do It Any Way You Want - Robert Wintes
TTITLE3=Trying To Get To You - Valerie Carter
TTITLE4=(A Case Of) Too Much Love Makin' - Gloria Scott
TTITLE5=Top Of The Stairs - Collins and Collins
TTITLE6=I Want To Be Your Everything - High Fashion
TTITLE7=Would You Believe In Me - Jon Lucien
TTITLE8=All Of My Love - Genobia Jeter
TTITLE9=Looking Up To You - Michael Wycoff
TTITLE10=And So It Begins - Syreeta
TTITLE11=Never Stopped Loving You - Tyrone Davis
TTITLE12=Hold Tight - Magic Lady
TTITLE13=Call Me - L.J. Reynolds
EXTD=
EXTT0=
EXTT1=
EXTT2=
EXTT3=
EXTT4=
EXTT5=
EXTT6=
EXTT7=
EXTT8=
EXTT9=
EXTT10=
EXTT11=
EXTT12=
EXTT13=
PLAYORDER=
